<svg xmlns="http://www.w3.org/2000/svg" version="1.1" xmlns:xlink="http://www.w3.org/1999/xlink" xmlns:svgjs="http://svgjs.dev/svgjs" width="2000" height="202" viewBox="0 0 2000 202"><g transform="matrix(1,0,0,1,-1.2121107360651422,-0.6367414984637918)"><svg viewBox="0 0 396 40" data-background-color="#ffffff" preserveAspectRatio="xMidYMid meet" height="202" width="2000" xmlns="http://www.w3.org/2000/svg" xmlns:xlink="http://www.w3.org/1999/xlink"><g id="tight-bounds" transform="matrix(1,0,0,1,0.2399979257409086,0.12608806118646498)"><svg viewBox="0 0 395.52 39.74782260613083" height="39.74782260613083" width="395.52"><g><svg viewBox="0 0 395.52 39.74782260613083" height="39.74782260613083" width="395.52"><g><svg viewBox="0 0 395.52 39.74782260613083" height="39.74782260613083" width="395.52"><g id="textblocktransform"><svg viewBox="0 0 395.52 39.74782260613083" height="39.74782260613083" width="395.52" id="textblock"><g><svg viewBox="0 0 395.52 39.74782260613083" height="39.74782260613083" width="395.52"><g transform="matrix(1,0,0,1,0,0)"><svg width="395.52" viewBox="3.8499999046325684 -37.29999923706055 474.6199951171875 47.69999694824219" height="39.74782260613083" data-palette-color="#ffffff"><path d="M36.05-5.3Q36.05-2.75 34.43-1.1 32.8 0.55 30.78 0.55 28.75 0.55 27.08-0.7 25.4-1.95 22.55-5.1L22.55-5.1 13.4-15.35 13.4-5.15Q13.4-2.45 15-1.6L15-1.6Q13.1 0.55 10.5 0.55 7.9 0.55 6.7-0.9 5.5-2.35 5.5-5.4L5.5-5.4 5.5-31.7Q5.5-34.3 3.85-35.15L3.85-35.15Q5.65-37.3 8.4-37.3L8.4-37.3Q13.4-37.3 13.4-31.4L13.4-31.4 13.4-21.65 22.9-32.65Q25.2-35.3 26.78-36.3 28.35-37.3 30.55-37.3 32.75-37.3 34.2-35.77 35.65-34.25 35.75-31.9L35.75-31.9Q35.4-31.95 35.05-31.95L35.05-31.95Q33.45-31.95 31.9-30.6L31.9-30.6 19.85-19.55 30.85-7.8Q33.25-5.3 35.7-5.3L35.7-5.3 36.05-5.3ZM55.3-6.4L55.3-6.4 63.35-6.4Q66.9-6.4 69.65-8.4L69.65-8.4Q71.25-7.05 71.25-4.85 71.25-2.65 69.65-1.33 68.05 0 64.85 0L64.85 0 54 0Q49 0 46.67-2.15 44.35-4.3 44.35-8.95L44.35-8.95 44.35-31.15Q44.35-33.7 42.65-34.6L42.65-34.6Q44.5-36.8 47.2-36.8L47.2-36.8 63.9-36.8Q67.85-36.8 69.55-35.77 71.25-34.75 71.25-32.75 71.25-30.75 69.65-29.4L69.65-29.4Q67.25-30.35 63.35-30.35L63.35-30.35 52.2-30.35 52.2-22.85 59.1-22.85Q63.1-22.85 64.77-22 66.45-21.15 66.45-19.13 66.45-17.1 64.85-15.85L64.85-15.85Q63.05-16.45 58.55-16.45L58.55-16.45 52.2-16.45 52.2-9.95Q52.2-6.4 55.3-6.4ZM100.7-36L100.7-36Q102.75-37.3 105.05-37.3 107.34-37.3 108.59-36.1 109.84-34.9 109.84-33.05 109.84-31.2 108.95-29.05L108.95-29.05 99.34-5.8Q97.75-1.95 96.5-0.7 95.25 0.55 92.5 0.55L92.5 0.55Q91.05 0.55 90.17 0.3 89.3 0.05 88.57-0.85 87.84-1.75 87.42-2.7 87-3.65 86.25-5.8L86.25-5.8 77.2-31.3Q76.25-33.95 74.55-34.85L74.55-34.85Q76.9-37.3 79.75-37.3L79.75-37.3Q81.8-37.3 83.15-36.08 84.5-34.85 85.55-31.7L85.55-31.7 93.25-7.65 100.84-29.2Q101.8-32.1 101.8-33.52 101.8-34.95 100.7-36ZM124.14-31.4L124.14-31.4 124.14-5.15Q124.14-2.45 125.74-1.6L125.74-1.6Q123.84 0.55 121.24 0.55 118.64 0.55 117.44-0.9 116.24-2.35 116.24-5.4L116.24-5.4 116.24-31.7Q116.24-34.3 114.59-35.15L114.59-35.15Q116.39-37.3 119.14-37.3L119.14-37.3Q124.14-37.3 124.14-31.4ZM135.09-5.4L135.09-5.4 135.09-31.7Q135.09-34.3 133.44-35.15L133.44-35.15Q135.24-37.3 138.84-37.3L138.84-37.3Q143.24-37.3 145.89-32.9L145.89-32.9 159.69-10 159.69-31.7Q159.69-34.3 158.04-35.15L158.04-35.15Q159.84-37.3 162.59-37.3L162.59-37.3Q167.59-37.3 167.59-31.4L167.59-31.4 167.59-5.15Q167.59-2.3 168.54-0.9L168.54-0.9Q166.99 0.55 164.04 0.55 161.09 0.55 158.84-1.23 156.59-3 153.99-7.25L153.99-7.25 142.99-25.7 142.99-5.15Q142.99-2.45 144.59-1.6L144.59-1.6Q142.69 0.55 140.09 0.55 137.49 0.55 136.29-0.9 135.09-2.35 135.09-5.4ZM205.89-29.95L205.89-29.95Q205.89-27.7 204.29-26.63 202.69-25.55 200.44-25.55 198.19-25.55 196.49-26.6L196.49-26.6Q196.69-27.6 196.69-28.88 196.69-30.15 195.99-31.25L195.99-31.25Q194.89-32.9 192.44-32.9L192.44-32.9Q188.84-32.9 186.29-29.18 183.74-25.45 183.74-18.82 183.74-12.2 186.51-9.35 189.29-6.5 194.19-6.5L194.19-6.5Q197.19-6.5 199.91-7.93 202.64-9.35 204.24-11.3L204.24-11.3Q205.99-10.55 205.99-8.2L205.99-8.2Q205.99-5.15 201.89-2.3 197.79 0.55 192.14 0.55L192.14 0.55Q184.24 0.55 179.86-4.33 175.49-9.2 175.49-18 175.49-26.8 180.24-32.05 184.99-37.3 193.14-37.3L193.14-37.3Q198.39-37.3 202.14-35.18 205.89-33.05 205.89-29.95ZM227.84-24.65L223.69-11.8 231.49-11.8 227.84-24.65ZM245.39-2.3Q244.79-1 243.36-0.23 241.94 0.55 239.99 0.55 238.04 0.55 236.79-0.43 235.54-1.4 234.54-3.9L234.54-3.9 233.34-7 221.99-7 220.74-3.5Q219.34 0.55 215.99 0.55L215.99 0.55Q214.39 0.55 212.96-0.18 211.54-0.9 211.09-2L211.09-2Q211.94-2.35 212.51-3.18 213.09-4 213.79-5.75L213.79-5.75 224.04-32.2Q223.14-34.15 222.09-34.9L222.09-34.9Q223.64-37.3 226.89-37.3L226.89-37.3Q229.39-37.3 230.54-35.95 231.69-34.6 232.99-31.1L232.99-31.1 241.94-6.9Q243.24-3.35 245.39-2.3L245.39-2.3ZM261.03-31.2L258.18-31.2 258.18-19.45 261.03-19.45Q264.53-19.45 266.38-20.98 268.23-22.5 268.23-25.33 268.23-28.15 266.38-29.68 264.53-31.2 261.03-31.2L261.03-31.2ZM279.28-2.8L279.28-2.8Q277.58 0.55 273.88 0.55L273.88 0.55Q271.93 0.55 270.33-0.45 268.73-1.45 266.88-4.4L266.88-4.4 261.08-13.85 258.13-13.85 258.13-5.15Q258.13-2.45 259.78-1.6L259.78-1.6Q257.88 0.55 255.18 0.55L255.18 0.55Q250.28 0.55 250.28-5.4L250.28-5.4 250.28-31.15Q250.28-33.7 248.58-34.6L248.58-34.6Q250.43-36.8 253.18-36.8L253.18-36.8 261.48-36.8Q267.53-36.8 271.91-33.77 276.28-30.75 276.28-25.3L276.28-25.3Q276.28-21.75 274.33-19.23 272.38-16.7 269.08-15.3L269.08-15.3 274.98-6.55Q276.78-4.1 279.28-2.8ZM285.68-8.35L285.68-8.35 285.68-31.7Q285.68-34.3 284.03-35.15L284.03-35.15Q285.83-37.3 288.58-37.3L288.58-37.3Q293.58-37.3 293.58-31.4L293.58-31.4 293.58-9.35Q293.58-5.8 296.68-5.8L296.68-5.8 301.83-5.8Q305.38-5.8 307.23-7.8L307.23-7.8Q308.43-6.95 308.43-4.98 308.43-3 306.86-1.5 305.28 0 302.28 0L302.28 0 294.78 0Q289.78 0 287.73-1.85 285.68-3.7 285.68-8.35ZM330.33-4.4L330.33-4.4Q334.73-4.4 336.53-8.3L336.53-8.3Q337.93-11.45 337.93-16.2L337.93-16.2Q337.93-17.25 337.88-18.4L337.88-18.4Q337.53-24.7 335.28-28.55 333.03-32.4 328.63-32.4L328.63-32.4Q321.03-32.4 321.03-20.45L321.03-20.45Q321.03-10.4 325.33-6.35L325.33-6.35Q327.38-4.4 330.33-4.4ZM342.28-31.78Q344.18-29.15 345.1-25.83 346.03-22.5 346.03-18.43 346.03-14.35 345.1-11 344.18-7.65 342.28-5 340.38-2.35 337.1-0.9 333.83 0.55 329.48 0.55L329.48 0.55Q321.18 0.55 317.05-4.73 312.93-10 312.93-18.4 312.93-26.8 317.05-32.05 321.18-37.3 329.48-37.3L329.48-37.3Q333.88-37.3 337.13-35.85 340.38-34.4 342.28-31.78ZM381.47-29.9L381.47-29.9Q381.47-28.05 380.3-26.93 379.13-25.8 377.07-25.8 375.02-25.8 373.22-27.1L373.22-27.1Q373.63-27.9 373.63-29.18 373.63-30.45 372.15-31.45 370.68-32.45 367.95-32.45 365.22-32.45 363.47-31.45 361.72-30.45 361.72-28.78 361.72-27.1 363.85-25.68 365.97-24.25 369-22.93 372.02-21.6 375.05-20.05 378.07-18.5 380.2-16 382.32-13.5 382.32-10.4L382.32-10.4Q382.32-5.6 378.05-2.53 373.77 0.55 367.7 0.55 361.63 0.55 357.43-1.73 353.22-4 353.22-7.6L353.22-7.6Q353.22-9.7 354.7-10.95 356.18-12.2 358.25-12.2 360.32-12.2 362.32-10.6L362.32-10.6Q361.13-9.5 361.13-7.95 361.13-6.4 362.95-5.35 364.77-4.3 367.85-4.3 370.93-4.3 372.7-5.55 374.47-6.8 374.47-8.88 374.47-10.95 372.35-12.58 370.22-14.2 367.2-15.5 364.18-16.8 361.15-18.25 358.13-19.7 356-21.93 353.88-24.15 353.88-27L353.88-27Q353.88-31.7 357.97-34.5 362.07-37.3 368.02-37.3 373.97-37.3 377.72-35.2 381.47-33.1 381.47-29.9ZM421.52 0.85L421.52 0.85Q422.87 2.2 422.87 4.3L422.87 4.3Q422.87 7.55 419.77 9.3L419.77 9.3Q417.87 10.4 415 10.4 412.12 10.4 409.15 9.28 406.17 8.15 404.15 6.53 402.12 4.9 400.87 3.1 399.62 1.3 399.62 0.2 399.62-0.9 400.25-1.48 400.87-2.05 402.82-2.95L402.82-2.95Q414.07-8.2 414.07-19.55L414.07-19.55Q414.07-24.75 411.27-28.45 408.47-32.15 404.37-32.15 400.27-32.15 398.02-29.05 395.77-25.95 395.77-20.85 395.77-15.75 398.02-13.2 400.27-10.65 403.97-10.25L403.97-10.25Q403.37-8.2 401.82-6.75 400.27-5.3 398.17-5.3L398.17-5.3Q394.27-5.3 391.1-9 387.92-12.7 387.92-18.4L387.92-18.4Q387.92-26.45 392.97-31.88 398.02-37.3 406.12-37.3L406.12-37.3Q413.22-37.3 417.72-32.88 422.22-28.45 422.22-20.98 422.22-13.5 418-7.83 413.77-2.15 405.72 0.1L405.72 0.1Q409.62 2.5 415.87 2.5L415.87 2.5Q419.17 2.5 421.52 0.85ZM445.17-24.65L441.02-11.8 448.82-11.8 445.17-24.65ZM462.72-2.3Q462.12-1 460.69-0.23 459.27 0.55 457.32 0.55 455.37 0.55 454.12-0.43 452.87-1.4 451.87-3.9L451.87-3.9 450.67-7 439.32-7 438.07-3.5Q436.67 0.55 433.32 0.55L433.32 0.55Q431.72 0.55 430.3-0.18 428.87-0.9 428.42-2L428.42-2Q429.27-2.35 429.85-3.18 430.42-4 431.12-5.75L431.12-5.75 441.37-32.2Q440.47-34.15 439.42-34.9L439.42-34.9Q440.97-37.3 444.22-37.3L444.22-37.3Q446.72-37.3 447.87-35.95 449.02-34.6 450.32-31.1L450.32-31.1 459.27-6.9Q460.57-3.35 462.72-2.3L462.72-2.3ZM474.27-9Q476.22-9 477.34-7.85 478.47-6.7 478.47-4.75 478.47-2.8 476.79-1.1 475.12 0.6 473.14 0.6 471.17 0.6 470.02-0.55 468.87-1.7 468.87-3.65 468.87-5.6 470.59-7.3 472.32-9 474.27-9Z" opacity="1" transform="matrix(1,0,0,1,0,0)" fill="#ffffff" class="wordmark-text-0" data-fill-palette-color="primary" id="text-0"></path></svg></g></svg></g></svg></g></svg></g></svg></g><defs></defs></svg><rect width="395.52" height="39.74782260613083" fill="none" stroke="none" visibility="hidden"></rect></g></svg></g></svg>